<svg xmlns="http://www.w3.org/2000/svg" viewBox="0 0 760 760" fill="none">
  <g opacity=".9">
    <circle cx="380" cy="380" r="282" stroke="#263947"/>
    <circle cx="380" cy="380" r="218" stroke="#47606F"/>
    <circle cx="380" cy="380" r="151" stroke="#263947"/>
    <ellipse cx="380" cy="380" rx="330" ry="155" stroke="#47606F" transform="rotate(-17 380 380)"/>
    <ellipse cx="380" cy="380" rx="310" ry="112" stroke="#263947" stroke-dasharray="4 7" transform="rotate(24 380 380)"/>
    <ellipse cx="380" cy="380" rx="255" ry="82" stroke="#47606F" transform="rotate(63 380 380)"/>
    <path d="M380 326 427 353v54l-47 27-47-27v-54l47-27Z" stroke="#35C8F4" stroke-width="2"/>
    <path d="m355 364 25-14 25 14v29l-25 14-25-14v-29Z" stroke="#9BE8FF"/>
    <circle cx="380" cy="380" r="5" fill="#35C8F4"/>
    <circle cx="150" cy="192" r="7" fill="#020B13" stroke="#9BE8FF" stroke-width="2"/>
    <circle cx="634" cy="273" r="6" fill="#35C8F4"/>
    <circle cx="591" cy="562" r="8" fill="#020B13" stroke="#F2F5F7" stroke-width="2"/>
    <circle cx="206" cy="526" r="5" fill="#F2F5F7"/>
    <circle cx="95" cy="405" r="4" fill="#35C8F4"/>
    <circle cx="478" cy="104" r="4" fill="#F2F5F7"/>
    <path d="M86 141h8M90 137v8M656 131h12M662 125v12M674 474h8M678 470v8" stroke="#6E8291"/>
  </g>
</svg>
